<svg version="1.0" id="main-logo" xmlns="http://www.w3.org/2000/svg"
 width="500.000000pt" height="500.000000pt" viewBox="0 0 500.000000 500.000000"
 preserveAspectRatio="xMidYMid meet">

<g transform="translate(0.000000,500.000000) scale(0.100000,-0.100000)">
<path d="M3324 3835 c-12 -8 -25 -11 -29 -7 -3 4 -5 2 -3 -5 2 -6 -16 -30 -40
-52 -23 -22 -43 -44 -44 -48 0 -4 -12 -23 -26 -41 -21 -27 -27 -30 -41 -20
-14 11 -14 11 -4 -2 10 -13 8 -21 -6 -43 -10 -15 -26 -34 -37 -43 -10 -8 -13
-13 -6 -9 6 3 12 1 12 -4 0 -6 -4 -11 -9 -11 -5 0 -11 -14 -15 -31 -3 -17 -10
-28 -16 -24 -6 4 -7 -1 -3 -11 5 -14 3 -16 -11 -11 -11 4 -19 1 -23 -11 -4 -9
-11 -20 -16 -24 -6 -3 -12 -38 -14 -78 l-3 -72 -65 -63 c-36 -35 -80 -89 -99
-118 -24 -37 -45 -58 -67 -66 -18 -6 -33 -11 -35 -11 -1 0 -5 12 -7 28 -2 15
-5 -21 -6 -79 -1 -75 -5 -111 -16 -125 -13 -17 -14 11 -15 250 l0 269 36 71
c51 99 110 188 183 276 l63 75 -628 3 c-421 1 -646 -1 -681 -9 -120 -24 -247
-116 -300 -216 -65 -122 -63 -96 -63 -867 0 -753 -2 -725 53 -846 31 -69 130
-165 212 -205 56 -28 70 -30 193 -33 l132 -4 0 -41 c0 -120 47 -248 119 -328
20 -21 63 -54 96 -72 l60 -33 6 -54 c13 -118 91 -225 204 -281 42 -20 64 -24
145 -24 81 0 103 4 150 26 106 50 178 148 202 274 12 64 14 66 58 87 62 30
144 118 182 195 26 53 32 81 37 156 l6 91 85 3 c142 5 176 11 240 43 112 57
184 139 232 266 l23 59 0 715 c0 663 -1 719 -18 774 -22 70 -67 154 -102 186
l-25 23 0 -84 c-1 -107 -12 -156 -45 -188 -25 -26 -27 -26 -153 -23 -127 3
-164 7 -159 20 1 4 -2 7 -8 7 -5 0 -9 -7 -9 -17 1 -10 -8 -18 -22 -21 -13 -2
-24 -1 -24 3 0 12 71 142 101 185 15 22 58 72 96 111 37 40 79 83 92 98 l24
26 -44 19 c-69 30 -83 32 -105 16z m-706 -272 c-13 -16 -78 -81 -144 -145
l-120 -118 -267 0 -268 0 -24 -25 -25 -24 0 -540 c0 -306 4 -550 9 -564 14
-36 33 -41 170 -47 l125 -5 -3 -65 c-1 -36 -8 -68 -14 -72 -7 -4 -78 -8 -158
-8 -127 0 -148 -2 -153 -16 -4 -9 -4 -25 0 -36 3 -10 2 -18 -3 -17 -20 3 -27
-2 -13 -11 13 -8 13 -10 -2 -10 -12 0 -15 -5 -11 -16 5 -14 3 -15 -14 -6 -11
6 -23 8 -27 5 -3 -3 -6 -1 -6 5 0 7 -3 11 -7 10 -29 -8 -101 62 -136 132 l-22
45 0 680 0 680 31 55 c17 30 47 67 66 83 69 56 74 56 576 57 l464 0 -24 -27z
m425 -122 c-5 -3 -17 -24 -26 -46 -9 -22 -16 -32 -16 -23 -1 26 31 88 42 81 5
-3 6 -8 0 -12z m-23 -206 c0 -5 -5 -3 -10 5 -5 8 -10 20 -10 25 0 6 5 3 10 -5
5 -8 10 -19 10 -25z m514 -12 c-25 -103 -101 -253 -180 -353 -45 -57 -91 -97
-107 -92 -4 1 -6 -3 -5 -10 2 -7 -12 -17 -30 -23 -18 -6 -30 -14 -27 -17 4 -3
-4 -6 -17 -6 -13 0 -32 -2 -43 -4 -11 -3 -15 -3 -8 -1 6 2 11 16 9 31 -2 26
-4 27 -54 26 -30 -1 -52 3 -52 9 0 6 -22 8 -62 4 -106 -11 -122 -16 -156 -53
-52 -55 -57 -36 -11 36 66 102 153 205 296 348 l132 132 161 0 160 0 -6 -27z
m-998 -48 c-14 -23 -22 -46 -18 -50 4 -5 1 -5 -5 -1 -10 6 -13 -55 -15 -286
-3 -446 1 -401 -41 -440 -50 -47 -57 -72 -64 -222 -5 -115 -9 -133 -27 -149
-20 -17 -21 -17 -27 0 -6 13 -8 14 -8 3 -1 -12 -3 -12 -10 -1 -7 10 -12 10
-30 -5 -15 -14 -21 -30 -21 -61 l0 -43 257 -2 257 -3 15 -40 c8 -22 38 -103
68 -180 29 -76 53 -143 53 -147 0 -15 -21 -8 -27 10 -15 42 -41 53 -116 52
-116 -2 -117 -2 -117 21 0 35 -52 97 -95 114 -82 34 -164 -10 -190 -100 -15
-52 -15 -57 4 -99 28 -64 70 -88 144 -83 51 3 62 8 93 39 20 19 40 51 44 69
l8 34 1 -44 c1 -39 -4 -48 -43 -87 -27 -27 -53 -44 -67 -44 -48 0 -48 -4 -51
-230 l-3 -215 -59 100 c-32 55 -81 138 -109 185 -62 105 -146 206 -203 243
l-43 28 18 42 c10 23 41 103 69 177 l50 135 5 310 c5 265 9 325 27 410 41 192
130 412 226 556 38 57 49 68 60 58 12 -10 11 -18 -10 -54z m-468 -127 c14 -14
16 -126 3 -146 -5 -9 -28 -12 -77 -10 l-69 3 -3 74 c-2 53 1 77 10 82 20 13
122 11 136 -3z m0 -320 c7 -7 12 -39 12 -73 0 -34 -5 -66 -12 -73 -12 -12
-104 -17 -132 -6 -13 5 -16 22 -16 78 0 40 3 76 7 79 11 12 128 8 141 -5z
m1072 -154 c0 -29 -355 -358 -377 -350 -8 3 -11 1 -8 -4 3 -6 2 -10 -3 -10 -5
0 -12 8 -14 18 -4 15 -12 18 -37 14 -38 -5 -38 -6 -42 -57 -1 -22 -8 -46 -13
-54 -9 -12 -8 -13 4 -6 13 8 13 7 1 -8 -7 -9 -17 -17 -22 -17 -5 0 -9 74 -9
164 l0 165 83 74 84 74 176 2 c98 1 177 -1 177 -5z m258 -328 c-3 -158 -4
-164 -30 -204 -48 -72 -61 -77 -245 -80 l-163 -4 0 61 c0 34 -1 64 -2 69 -2 4
53 9 120 12 120 5 124 6 148 33 20 24 24 39 24 98 0 65 11 104 35 121 6 4 19
13 30 20 10 7 31 24 45 38 19 19 27 22 33 12 5 -7 7 -86 5 -176z m-1330 162
c7 -7 12 -39 12 -73 0 -34 -5 -66 -12 -73 -17 -17 -82 -16 -72 1 6 9 3 8 -9
-1 -9 -8 -26 -12 -39 -10 -21 3 -23 9 -26 71 -2 42 2 74 9 83 14 18 120 19
137 2z m827 -878 c3 -6 -1 -7 -9 -4 -18 7 -21 14 -7 14 6 0 13 -4 16 -10z"/>
<path d="M3138 2743 c7 -3 16 -2 19 1 4 3 -2 6 -13 5 -11 0 -14 -3 -6 -6z"/>
<path d="M3040 3536 c0 -2 8 -10 18 -17 15 -13 16 -12 3 4 -13 16 -21 21 -21
13z"/>
</g>
</svg>
