<?xml version="1.0" standalone="no"?>
<!DOCTYPE svg PUBLIC "-//W3C//DTD SVG 20010904//EN"
 "http://www.w3.org/TR/2001/REC-SVG-20010904/DTD/svg10.dtd">
<svg version="1.0" xmlns="http://www.w3.org/2000/svg"
 width="204.000000pt" height="204.000000pt" viewBox="0 0 204.000000 204.000000"
 preserveAspectRatio="xMidYMid meet">

<g transform="translate(0.000000,204.000000) scale(0.100000,-0.100000)"
fill="#000000" stroke="none">
<path d="M865 2026 c-538 -84 -922 -588 -856 -1125 59 -475 430 -839 909 -893
466 -51 923 244 1066 692 93 288 61 585 -88 837 -213 358 -623 552 -1031 489z
m385 -115 c282 -72 530 -295 634 -571 30 -82 56 -232 56 -326 0 -158 -55 -348
-140 -481 l-39 -62 -36 15 c-20 8 -85 26 -144 39 -223 51 -279 76 -334 153
l-31 42 31 33 c39 40 170 255 189 309 20 57 18 76 -12 103 -26 24 -26 26 -19
119 8 110 -5 191 -41 253 -61 105 -299 243 -419 243 l-43 0 5 -42 5 -43 -65
-28 c-72 -31 -144 -95 -173 -154 -15 -31 -20 -66 -22 -182 -3 -139 -4 -145
-28 -163 -18 -15 -24 -29 -24 -59 0 -49 28 -106 126 -255 l75 -114 -27 -61
c-25 -56 -33 -64 -79 -85 -28 -13 -118 -40 -200 -59 -82 -20 -164 -43 -182
-50 -31 -13 -33 -13 -51 13 -148 214 -198 500 -132 757 84 329 366 595 705
666 118 25 294 20 415 -10z"/>
</g>
</svg>
